# xmcd CD database file
#
# Track frame offsets:
#	150
#	12395
#	27682
#	41910
#	55095
#	66782
#	79440
#	94732
#	108327
#	122355
#	136982
#	147127
#	157417
#	169527
#	184592
#	197985
#	211870
#	224760
#	236790
#	250270
#
# Disc length: 3509 seconds
#
# Revision: 1
# Processed by: cddbd v1.4PL0 Copyright (c) Steve Scherf et al.
# Submitted via: CDex 1.50beta9
#
DISCID=2e0db314
DTITLE=Lionel Hampton - Masters of Jazz - Lionel Hampton [CD1)
DYEAR=1999
DGENRE=Jazz
TTITLE0=Dinah
TTITLE1=Vibraphone Blues
TTITLE2=Buzzin' Around With The Bee
TTITLE3=Whoa Babe
TTITLE4=Don't Be That Way
TTITLE5=I'm In The Mood For Swing
TTITLE6=Shoe Shiner's Drag
TTITLE7=Sweethearts On Parade
TTITLE8=Shufflin' At The Hollywood
TTITLE9=Memories Of You
TTITLE10=When Lights Are Low
TTITLE11=Hot Mallets
TTITLE12=Early Session Hop
TTITLE13=One Sweet Letter From You
TTITLE14=Haven't Named It Yet
TTITLE15=Central Avenue Breakdown
TTITLE16=Jack The Bellboy
TTITLE17=Jivin' With Jarvis
TTITLE18=Blue Because Of You
TTITLE19=Good Enough To Keep
EXTD=YEAR: 1999
EXTT0=
EXTT1=
EXTT2=
EXTT3=
EXTT4=
EXTT5=
EXTT6=
EXTT7=
EXTT8=
EXTT9=
EXTT10=
EXTT11=
EXTT12=
EXTT13=
EXTT14=
EXTT15=
EXTT16=
EXTT17=
EXTT18=
EXTT19=
PLAYORDER=
